<svg width="114" height="114" viewBox="0 0 114 114" fill="none" xmlns="http://www.w3.org/2000/svg">
<path d="M71.7 15.3C71.7 23.5 65 30.1 56.9 30.1C48.7 30.1 41.9 23.4 42 15.2C42 7.00002 48.8 0.3 57 0.4C65.1 0.5 71.7 7.19999 71.7 15.3Z" fill="#4f5169"/>
<path d="M98.3 0.399994C106.5 0.399994 113.2 7.19999 113.1 15.4C113 23.5 106.3 30.2 98.2 30.1C90 30.1 83.3 23.3 83.4 15.1C83.4 7.00001 90.1 0.399994 98.3 0.399994Z" fill="#4f5169"/>
<path d="M56.8 41.8C65 41.8 71.7 48.6 71.6 56.8C71.5 64.9 64.8 71.6 56.7 71.5C48.5 71.5 41.8 64.7 41.9 56.5C42 48.4 48.7 41.8 56.8 41.8Z" fill="#4f5169"/>
<path d="M113.1 56.8C113.1 65 106.4 71.6 98.3 71.6C90.1 71.6 83.3 64.9 83.4 56.7C83.4 48.5 90.2 41.8 98.4 41.9C106.5 41.9 113.1 48.6 113.1 56.8Z" fill="#4f5169"/>
<path d="M71.7 98.2C71.7 106.4 65 113.1 56.7 113.1C48.6 113.1 41.9 106.4 41.9 98.2C41.9 90 48.6 83.3 56.9 83.3C65 83.3 71.7 90 71.7 98.2Z" fill="#4f5169"/>
<path d="M113.1 98.3C113.1 106.4 106.4 113.1 98.2 113.1C90 113.1 83.3 106.4 83.3 98.1C83.3 89.9 90.1 83.2 98.4 83.3C106.6 83.4 113.2 90.1 113.1 98.3Z" fill="#4f5169"/>
<path d="M30.2 15.4C30.1 23.5 23.5 30.2 15.3 30.1C7.09999 30.1 0.400006 23.3 0.500006 15.1C0.600006 7.00001 7.30003 0.3 15.4 0.4C23.7 0.4 30.3 7.1 30.2 15.4Z" fill="#4f5169"/>
<path d="M30.2 56.9C30.2 65.1 23.5 71.7 15.3 71.7C7.09999 71.7 0.399994 64.9 0.399994 56.7C0.499994 48.6 7.19999 41.9 15.3 41.9C23.7 41.9 30.3 48.6 30.2 56.9Z" fill="#4f5169"/>
<path d="M30.2 98.3C30.2 106.5 23.5 113.1 15.3 113.1C7.09999 113.1 0.399994 106.3 0.399994 98.1C0.399994 90 7.09999 83.3 15.3 83.3C23.6 83.3 30.3 90 30.2 98.3Z" fill="#4f5169"/>
</svg>
